<svg id="Layer_1" data-name="Layer 1" xmlns="http://www.w3.org/2000/svg" viewBox="0 0 1080 833.36"><defs><style>.cls-1{fill:#4184f4;}.cls-1,.cls-2,.cls-3,.cls-4,.cls-5{fill-rule:evenodd;}.cls-2{fill:#33a852;}.cls-3{fill:#fbbb03;}.cls-4{fill:#e94234;}.cls-5{fill:#5e6266;}</style></defs><title>Artboard 1</title><path class="cls-1" d="M260.14,356.27a16.63,16.63,0,1,1-16.62,16.63,16.63,16.63,0,0,1,16.62-16.63Z"/><path class="cls-1" d="M260.14,443.9a16.63,16.63,0,1,1-16.62,16.63,16.63,16.63,0,0,1,16.62-16.63Z"/><path class="cls-1" d="M260.14,400.09a16.63,16.63,0,1,1-16.62,16.63,16.62,16.62,0,0,1,16.62-16.63Z"/><path class="cls-2" d="M222.92,336.17a14.51,14.51,0,1,1-14.51,14.5,14.5,14.5,0,0,1,14.51-14.5Z"/><path class="cls-2" d="M222.84,468.26a14.51,14.51,0,1,1-14.5,14.51,14.51,14.51,0,0,1,14.5-14.51Z"/><path class="cls-2" d="M222.84,424.48A14.51,14.51,0,1,1,208.34,439a14.51,14.51,0,0,1,14.5-14.51Z"/><path class="cls-2" d="M222.84,379.87a14.51,14.51,0,1,1-14.5,14.5,14.51,14.51,0,0,1,14.5-14.5Z"/><path class="cls-3" d="M185.54,317.29a12.21,12.21,0,1,1-12.21,12.21,12.21,12.21,0,0,1,12.21-12.21Z"/><path class="cls-3" d="M185.54,491.66a12.21,12.21,0,1,1-12.21,12.2,12.2,12.2,0,0,1,12.21-12.2Z"/><path class="cls-3" d="M185.54,447.93a12.21,12.21,0,1,1-12.21,12.2,12.2,12.2,0,0,1,12.21-12.2Z"/><path class="cls-3" d="M185.54,404.43a12.21,12.21,0,1,1-12.21,12.2,12.2,12.2,0,0,1,12.21-12.2Z"/><path class="cls-3" d="M185.54,360.83A12.21,12.21,0,1,1,173.33,373a12.21,12.21,0,0,1,12.21-12.21Z"/><path class="cls-4" d="M147.8,340.57a10.62,10.62,0,1,1-10.61,10.62,10.62,10.62,0,0,1,10.61-10.62Z"/><path class="cls-4" d="M147.8,471.57a10.61,10.61,0,1,1-10.61,10.61,10.61,10.61,0,0,1,10.61-10.61Z"/><path class="cls-4" d="M147.8,428.32a10.62,10.62,0,1,1-10.61,10.62,10.62,10.62,0,0,1,10.61-10.62Z"/><path class="cls-4" d="M147.8,383.8a10.62,10.62,0,1,1-10.61,10.61A10.61,10.61,0,0,1,147.8,383.8Z"/><path class="cls-1" d="M110.06,363.91a8.85,8.85,0,1,1-8.85,8.84,8.84,8.84,0,0,1,8.85-8.84Z"/><path class="cls-1" d="M110.06,451.65a8.84,8.84,0,1,1-8.85,8.84,8.84,8.84,0,0,1,8.85-8.84Z"/><path class="cls-1" d="M110.06,407.83a8.85,8.85,0,1,1-8.85,8.85,8.84,8.84,0,0,1,8.85-8.85Z"/><path class="cls-5" d="M716.86,360.26c5.67,0,11.32,0,17,0q-.17,57.6,0,115.22c-5.67-.07-11.33,0-17,0q.12-57.59,0-115.16Z"/><path class="cls-5" d="M663.79,415.15h0a21.51,21.51,0,0,0-11.74,7.49c-7.53,9.26-7.35,24.07.84,32.88a20.57,20.57,0,0,0,34.52-5.76c4.07-9.51,2.71-21.71-4.72-29.22a19.86,19.86,0,0,0-18.9-5.39Zm-15.44-10.47c9-5.6,20.68-7.42,30.53-3.1,3.7,1.43,6.62,4.12,9.57,6.66.07-2.21.08-4.41.07-6.62h16.31q0,34.88,0,69.73c-.05,9.57-1.64,19.6-7.21,27.63a32.91,32.91,0,0,1-21.12,13.42c-8,1.5-16.55,1.18-24.08-2.12a38.77,38.77,0,0,1-19.88-20.15c4.93-2.17,10-4.08,14.87-6.28,2.83,6.15,7.92,11.57,14.62,13.32,7.57,1.76,16.64.11,21.66-6.26s5.09-14.67,4.73-22.26c-3.85,3.82-8.4,7.07-13.76,8.3-11.85,3-24.75-1.43-33.28-9.94a40,40,0,0,1,7-62.33Z"/><path class="cls-5" d="M491.85,415.09h0a22.13,22.13,0,0,0-13.55,9.26c-6.24,9.36-5.47,23.06,2.36,31.31a21.71,21.71,0,0,0,31.64,0c9-9.41,8.74-26-.69-35a21.88,21.88,0,0,0-19.76-5.59Zm.49-15.68C505.2,398,518.71,403.1,527,413.07c11.31,13.25,12.09,34.07,2,48.24a39.11,39.11,0,0,1-28.33,16.36,40.33,40.33,0,0,1-29.39-8.48,40,40,0,0,1-3.28-58.36,39.74,39.74,0,0,1,24.29-11.42Z"/><path class="cls-5" d="M763.71,423h0a22.88,22.88,0,0,0-4.27,14.44q17.73-7.31,35.42-14.71c-2.19-4.93-7.41-7.89-12.64-8.31-7.13-.8-14.3,2.89-18.51,8.58Zm-10.84-12.34A36.35,36.35,0,0,1,789,400.53c8.87,2.48,16.17,9,20.77,16.83,2.18,3.5,3.44,7.44,5.14,11.17-17.45,7.5-35.09,14.61-52.63,21.91A20.63,20.63,0,0,0,773.05,461c7.18,2.77,15.88,1.82,22-3a32.36,32.36,0,0,0,5.88-6.32c4.41,3,8.85,5.91,13.26,8.88-6.47,9.44-17,16.18-28.5,17.13-12.32,1.38-25.31-3.24-33.49-12.68-13.3-14.88-12.9-39.78.7-54.32Z"/><path class="cls-5" d="M578.13,415.09h0A21.76,21.76,0,0,0,567,421.5c-8.63,9.17-8.55,25.1.13,34.23A21.67,21.67,0,0,0,599,455.3c8.58-9.48,8.21-25.78-1.08-34.64a21.76,21.76,0,0,0-19.76-5.57Zm-1-15.45a39.9,39.9,0,0,1,34.38,11.59c13,13.2,14.23,35.78,3.33,50.61A38.92,38.92,0,0,1,587,477.66a40.06,40.06,0,0,1-28.7-8.07,39.25,39.25,0,0,1,18.86-69.95Z"/><path class="cls-5" d="M350.6,373.41A62.22,62.22,0,0,1,396,355.7a58.1,58.1,0,0,1,40.12,16.78q-5.89,5.75-11.65,11.64A44.17,44.17,0,0,0,362.23,386,45.17,45.17,0,0,0,371,454.74c10.12,6.4,22.82,7.89,34.4,5.33a39.59,39.59,0,0,0,21.09-12.54c4.71-5.45,6.89-12.6,7.79-19.63-13.33,0-26.66,0-40,0,0-5.55,0-11.11,0-16.66h56.13c2.36,14,.2,29-7.09,41.2a54.15,54.15,0,0,1-33.92,23.88c-12,2.59-24.86,2.16-36.46-2.13a62.84,62.84,0,0,1-35-31.4,59.63,59.63,0,0,1-4.84-37.58,60.75,60.75,0,0,1,17.44-31.77Z"/><polygon class="cls-5" points="964.73 364.9 978.79 364.9 978.79 476.19 964.73 476.19 964.73 364.9 964.73 364.9"/><path class="cls-5" d="M884.07,432.38h35.74l-17.87-48.47-17.87,48.47Zm26.45-67.48,41.25,111.29H936L925,446.4H878.9l-11,29.79h-15.8L893.36,364.9Z"/></svg>